<?xml version="1.0" encoding="UTF-8" standalone="no"?>
<!DOCTYPE svg PUBLIC "-//W3C//DTD SVG 1.1//EN" "http://www.w3.org/Graphics/SVG/1.1/DTD/svg11.dtd">
<svg version="1.1" xmlns="http://www.w3.org/2000/svg" xmlns:xlink="http://www.w3.org/1999/xlink" preserveAspectRatio="xMidYMid meet" viewBox="0 0 638.787 67" width="638.79" height="67"><defs><path d="M418.8 45.7C420.71 46.18 422.71 45.89 424.66 45.95C489.75 45.94 554.85 45.94 619.94 45.95C621.8 45.9 623.69 46.13 625.53 45.76C626.46 45.58 627.11 44.66 627.1 43.74C627.08 42.4 625.78 41.66 624.55 41.78C558.43 41.79 492.31 41.78 426.19 41.79C423.82 41.85 421.43 41.61 419.06 41.88C417.08 42.02 416.92 45.28 418.8 45.7Z" id="b4PjxIKhG"></path><path d="M215.14 45.7C213.23 46.18 211.23 45.89 209.28 45.95C144.18 45.94 79.09 45.94 14 45.95C12.14 45.9 10.25 46.13 8.41 45.76C7.48 45.58 6.83 44.66 6.84 43.74C6.86 42.4 8.16 41.66 9.39 41.78C75.51 41.79 141.63 41.78 207.75 41.79C210.12 41.85 212.51 41.61 214.88 41.88C216.86 42.02 217.02 45.28 215.14 45.7Z" id="b8S2wscNA"></path><path d="M411.4 48.03C413.62 47.34 414.88 44.85 414.26 42.64C413.81 40.94 412.26 39.52 410.48 39.42C407.96 38.98 405.46 41.13 405.47 43.68C405.29 46.63 408.61 49.19 411.4 48.03ZM409.5 46.14C408.41 45.9 407.54 44.84 407.57 43.72C407.68 42.57 408.67 41.62 409.77 41.4C410.82 41.4 411.85 42.1 412.19 43.1C412.87 44.65 411.11 46.53 409.5 46.14Z" id="g29GRJqLbi"></path><path d="M222.54 48.03C220.32 47.34 219.06 44.85 219.68 42.64C220.13 40.94 221.68 39.52 223.46 39.42C225.98 38.98 228.48 41.13 228.46 43.68C228.64 46.63 225.33 49.19 222.54 48.03ZM224.44 46.14C225.53 45.9 226.4 44.84 226.37 43.72C226.26 42.57 225.27 41.62 224.17 41.4C223.12 41.4 222.09 42.1 221.74 43.1C221.07 44.65 222.83 46.53 224.44 46.14Z" id="a2EaxgMNim"></path><path d="M320.14 52.13C331.88 50.93 343.02 46.32 353.04 40.24C358.02 37.27 362.45 33.49 367.41 30.49C372.34 27.49 377.86 25.15 383.7 24.97C390.01 25.08 396.13 28.86 399.01 34.48C401.21 38.71 401.42 43.77 400.18 48.33C399.45 51.16 398.15 53.94 395.96 55.94C393.9 57.82 391.06 58.71 388.29 58.61C384.55 58.72 380.49 57.23 378.43 53.94C376.07 50.29 377.03 44.67 380.9 42.44C383.62 40.83 387.05 41.28 389.78 42.61C391.11 43.22 391.43 44.8 392.41 45.78C392.72 44.77 393.11 43.7 392.8 42.66C392.35 41.01 391.03 39.72 389.55 38.94C387.25 37.68 384.49 37.53 381.97 38.11C378.41 38.98 375.56 42.07 374.89 45.65C374.43 48.3 374.74 51.15 376.17 53.47C378.08 56.79 381.87 58.67 385.6 58.99C388.31 59.05 391.1 59.23 393.69 58.27C397.63 56.96 400.72 53.66 402.07 49.77C403.6 45.34 403.67 40.4 402.16 35.95C400.27 30.32 395.57 25.85 389.99 23.91C387.06 22.75 383.84 22.84 380.75 23.09C373.33 24.23 366.79 28.3 360.88 32.72C357.17 35.56 353.37 38.31 349.33 40.67C339.49 46.44 328.41 50.63 316.97 51.27C305.53 50.63 294.45 46.44 284.61 40.67C280.57 38.31 276.77 35.56 273.06 32.72C267.15 28.3 260.61 24.23 253.19 23.09C250.1 22.84 246.87 22.75 243.95 23.91C238.37 25.85 233.66 30.32 231.78 35.95C230.27 40.4 230.34 45.34 231.87 49.77C233.22 53.66 236.31 56.96 240.25 58.27C242.84 59.23 245.63 59.05 248.34 58.99C252.07 58.67 255.86 56.79 257.77 53.47C259.2 51.15 259.51 48.3 259.05 45.65C258.38 42.07 255.52 38.98 251.97 38.11C249.45 37.53 246.69 37.68 244.39 38.94C242.91 39.72 241.59 41.01 241.14 42.66C240.83 43.7 241.22 44.77 241.53 45.78C242.51 44.8 242.83 43.22 244.16 42.61C246.89 41.28 250.32 40.83 253.04 42.44C256.91 44.67 257.87 50.29 255.51 53.94C253.45 57.23 249.39 58.72 245.65 58.61C242.88 58.71 240.04 57.82 237.98 55.94C235.79 53.94 234.49 51.16 233.76 48.33C232.52 43.77 232.73 38.71 234.92 34.48C237.81 28.86 243.93 25.08 250.24 24.97C256.08 25.15 261.6 27.49 266.53 30.49C271.49 33.49 275.92 37.27 280.9 40.24C290.92 46.32 302.06 50.93 313.8 52.13C314.85 52.25 315.91 52.34 316.97 52.4C318.03 52.34 319.09 52.25 320.14 52.13ZM332.71 42.09C336.23 38.42 338.64 33.79 342.51 30.43C344.46 28.59 346.8 27.26 349.01 25.77C346.65 25.55 344.33 24.93 341.96 24.8C338.36 24.76 334.62 24.9 331.3 26.45C326.37 28.67 322.85 33.09 317.92 35.3C317.61 35.42 317.29 35.55 316.97 35.66C316.65 35.55 316.33 35.42 316.02 35.3C311.09 33.09 307.57 28.67 302.64 26.45C299.32 24.9 295.58 24.76 291.98 24.8C289.61 24.93 287.29 25.55 284.93 25.77C287.14 27.26 289.48 28.59 291.43 30.43C295.3 33.79 297.71 38.42 301.23 42.09C305.34 46.24 311.2 48.25 316.97 48.44C322.74 48.25 328.6 46.24 332.71 42.09ZM321.11 36.26C325.51 33.45 328.63 28.87 333.55 26.86C337.96 25.23 342.82 24.94 347.36 26.15C344.15 28.2 341.02 30.43 338.4 33.22C334.83 37.05 331.61 41.55 326.63 43.67C323.58 44.99 320.29 45.75 316.97 45.96C313.64 45.75 310.36 44.99 307.31 43.67C302.33 41.55 299.11 37.05 295.54 33.22C292.92 30.43 289.79 28.2 286.58 26.15C291.12 24.94 295.98 25.23 300.38 26.86C305.31 28.87 308.43 33.45 312.83 36.26C314.1 37.13 315.51 37.77 316.97 38.24C318.43 37.77 319.83 37.13 321.11 36.26ZM323.19 26.03C324.95 21.27 324.74 15.41 321.43 11.36C320.24 9.86 318.69 8.72 316.97 7.96C315.25 8.72 313.7 9.86 312.51 11.36C309.19 15.41 308.98 21.27 310.75 26.03C311.95 29.27 314.14 32.15 316.97 34.13C319.8 32.15 321.99 29.27 323.19 26.03ZM321.81 13.63C323.29 16.23 323.43 19.32 323.12 22.23C322.53 26.35 320.25 30.2 316.97 32.74C313.69 30.2 311.41 26.35 310.82 22.23C310.5 19.32 310.65 16.23 312.13 13.63C313.19 11.57 314.93 9.95 316.97 8.92C319.01 9.95 320.75 11.57 321.81 13.63Z" id="d2phsjhahe"></path><path d="M363.31 46.78C358.04 43.77 351.55 43.87 345.88 45.62C342.84 46.6 339.78 47.76 337.23 49.73C344.8 49.54 351.59 53.29 358.84 54.79C361.06 55.2 363.43 55.14 365.53 54.27C366.89 53.74 368.08 52.21 367.5 50.73C366.74 48.88 364.93 47.78 363.31 46.78ZM339.97 48.94C344.14 47.35 348.59 46.31 353.07 46.36C357.59 46.54 362.44 47.98 365.38 51.62C363.59 52.72 361.4 52.88 359.36 52.56C352.89 51.4 346.63 48.75 339.97 48.94Z" id="apbaoqCoK"></path><path d="M270.63 46.78C275.9 43.77 282.39 43.87 288.06 45.62C291.1 46.6 294.16 47.76 296.7 49.73C289.14 49.54 282.35 53.29 275.1 54.79C272.88 55.2 270.51 55.14 268.41 54.27C267.05 53.74 265.86 52.21 266.44 50.73C267.2 48.88 269.01 47.78 270.63 46.78ZM293.97 48.94C289.8 47.35 285.34 46.31 280.86 46.36C276.35 46.54 271.49 47.98 268.56 51.62C270.35 52.72 272.54 52.88 274.58 52.56C281.04 51.4 287.31 48.75 293.97 48.94Z" id="avbfzvUiS"></path></defs><g><g><g><use xlink:href="#b4PjxIKhG" opacity="1" fill="#f7882f" fill-opacity="1"></use><g><use xlink:href="#b4PjxIKhG" opacity="1" fill-opacity="0" stroke="#000000" stroke-width="1" stroke-opacity="0"></use></g></g><g><use xlink:href="#b8S2wscNA" opacity="1" fill="#f7882f" fill-opacity="1"></use><g><use xlink:href="#b8S2wscNA" opacity="1" fill-opacity="0" stroke="#000000" stroke-width="1" stroke-opacity="0"></use></g></g><g><use xlink:href="#g29GRJqLbi" opacity="1" fill="#62615c" fill-opacity="1"></use><g><use xlink:href="#g29GRJqLbi" opacity="1" fill-opacity="0" stroke="#000000" stroke-width="1" stroke-opacity="0"></use></g></g><g><use xlink:href="#a2EaxgMNim" opacity="1" fill="#62615c" fill-opacity="1"></use><g><use xlink:href="#a2EaxgMNim" opacity="1" fill-opacity="0" stroke="#000000" stroke-width="1" stroke-opacity="0"></use></g></g><g><use xlink:href="#d2phsjhahe" opacity="1" fill="#f7882f" fill-opacity="1"></use><g><use xlink:href="#d2phsjhahe" opacity="1" fill-opacity="0" stroke="#ffde00" stroke-width="1" stroke-opacity="0"></use></g></g><g><use xlink:href="#apbaoqCoK" opacity="1" fill="#62615c" fill-opacity="1"></use><g><use xlink:href="#apbaoqCoK" opacity="1" fill-opacity="0" stroke="#000000" stroke-width="1" stroke-opacity="0"></use></g></g><g><use xlink:href="#avbfzvUiS" opacity="1" fill="#62615c" fill-opacity="1"></use><g><use xlink:href="#avbfzvUiS" opacity="1" fill-opacity="0" stroke="#000000" stroke-width="1" stroke-opacity="0"></use></g></g></g></g></svg>